<?xml version="1.0" encoding="UTF-8"?>
<svg xmlns="http://www.w3.org/2000/svg" viewBox="95 0 370 494" width="370" height="494">
  <path fill="#14B590" d="M172 10.08c-52.19,23.86 -58.94,97.49 -26.79,138.56 20.7,26.44 60.94,48.13 131.74,69.12 51.34,15.22 112.33,70.35 106.63,127.41l27.73 0c25.27,0 45.94,-20.68 45.94,-45.94l0 -95.61c0,-25.27 -20.67,-45.94 -45.94,-45.94l-90.25 0 -17.19 0c44.3,-98.63 -42.66,-188.37 -131.88,-147.59zm-22.08 30.79c33.92,-33.47 123.86,-37.52 145.51,52 3.87,23.75 -0.16,43.17 -6.14,61.52 -13.98,-28.76 -113.49,-41.1 -127.22,-93.81 30.19,-14.9 60.87,-14.37 92.31,9.39 -30.53,-36.97 -65.57,-45.3 -104.46,-29.11z"/>
  <path fill="#834B9B" d="M285.26 483.65c52.19,-23.86 58.94,-97.49 26.79,-138.56 -20.7,-26.44 -60.93,-48.13 -131.73,-69.12 -53.53,-15.87 -110.28,-66.59 -104.21,-127.41l-30.15 0c-25.27,0 -45.94,20.67 -45.94,45.94l0 95.61c0,25.27 20.68,45.95 45.94,45.95l90.25 0 17.19 0c-44.3,98.63 42.66,188.37 131.88,147.59zm22.08 -30.79c-33.92,33.47 -123.86,37.52 -145.51,-52 -3.87,-23.75 0.16,-43.17 6.14,-61.52 13.98,28.76 113.49,41.1 127.22,93.81 -30.19,14.89 -60.87,14.37 -92.31,-9.4 30.53,36.97 65.56,45.3 104.46,29.11z"/>
</svg>
